<svg display="none" xmlns="http://www.w3.org/2000/svg">

	<symbol id="svg-fb" viewBox="0 0 10 21">
		<g>
			<path
				d="M9.59731 10.4798H6.63121V21H2.13731V10.4798H0V6.78255H2.13731V4.39003C2.13731 2.67911 2.97677 0 6.67121 0L10 0.0134828V3.60227H7.58475C7.18857 3.60227 6.63151 3.7939 6.63151 4.61006V6.78599H9.98993L9.59731 10.4798Z"
			/>
		</g>
	</symbol>
	<symbol id="svg-vk" viewBox="0 0 23 14">
		<g>
			<path
				d="M22.3216 0.971292C22.221 1.4067 21.8858 2.07656 21.3161 3.18182C20.8804 3.95215 20.3106 4.72249 19.7743 5.72727C19.2381 6.49761 19.0035 6.83254 19.0035 6.93301C18.7689 7.16746 18.7689 7.36842 18.7689 7.4689C18.7689 7.56938 18.8694 7.80383 19.0035 8.00479L19.4392 8.44019C21.5507 10.5837 22.6567 12.1244 22.9584 12.8947C23.0589 13.2297 22.9584 13.5646 22.8578 13.6651C22.7573 13.7656 22.4221 14 22.0869 14H19.5397C19.2046 14 19.0035 13.8995 18.6683 13.6651C18.4337 13.5646 18.2326 13.2297 17.7969 12.7943C17.3612 12.2584 16.9255 11.9234 16.5903 11.4545C15.4843 10.3493 14.6129 9.8134 14.0431 9.8134C13.8085 9.8134 13.6074 9.8134 13.6074 9.91388C13.6074 10.0144 13.4734 10.1148 13.4734 10.4498C13.4734 10.6842 13.4734 11.1196 13.4734 11.7895V12.8947C13.4734 13.2297 13.3728 13.4306 13.2388 13.6651C13.0041 13.8995 12.4679 13.8995 11.697 13.8995C10.3564 13.8995 8.94873 13.4641 7.6081 12.6938C6.26746 11.9234 5.06089 10.7177 3.95487 9.27751C2.94939 7.9378 2.17853 6.63158 1.54173 5.29187C1.00548 4.28708 0.670317 3.31579 0.335158 2.41148C0.100548 1.64115 0 1.20574 0 0.870814C0 0.435407 0.335159 0.100478 0.871412 0.100478H3.41862C3.75377 0.100478 3.95487 0.200957 4.08893 0.334928C4.18948 0.435407 4.42409 0.770335 4.52464 1.10526C4.96034 2.21053 5.39605 3.41627 5.96582 4.42105C6.50207 5.42584 6.9713 6.29665 7.50755 6.83254C8.0438 7.50239 8.37896 7.83732 8.71412 7.83732C8.94873 7.83732 9.04928 7.73684 9.04928 7.60287C9.14983 7.50239 9.14983 7.26794 9.14983 6.83254V3.08134C9.14983 2.64593 9.04928 2.21053 8.81467 1.8756C8.71412 1.64115 8.58006 1.44019 8.37896 1.20574C8.14435 0.971293 8.0438 0.770335 8.0438 0.669856C8.0438 0.569378 8.14435 0.334929 8.27841 0.23445C8.37896 0.133972 8.61357 0 8.71412 0H12.3673C12.602 0 12.8031 0.100479 12.9036 0.23445C13.0041 0.334929 13.0041 0.669856 13.0041 1.00478V6.09569C13.0041 6.33014 13.0041 6.5311 13.1047 6.63158C13.2052 6.73206 13.3393 6.86603 13.4399 6.86603C13.5404 6.86603 13.775 6.86603 13.8756 6.76555C14.1102 6.66507 14.3113 6.43062 14.5459 6.09569C15.0821 5.55981 15.6519 4.75598 16.1882 3.88517C16.5233 3.21531 16.959 2.54545 17.2942 1.77512L17.7299 0.904307C17.9645 0.4689 18.2661 0.133972 18.8359 0.133972H21.3831C22.1875 0.100479 22.4221 0.435407 22.3216 0.971292Z"
			/>
		</g>
	</symbol>
	<symbol id="svg-wa" viewBox="0 0 22 22">
		<g>
			<path
				d="M18.7019 3.38325C19.6528 4.33411 20.4848 5.52268 20.9602 6.71125C21.4356 7.89983 21.7922 9.32611 21.7922 10.6335C21.7922 12.5353 21.3168 14.1993 20.3659 15.7444C19.415 17.2895 18.1076 18.597 16.5625 19.5478C15.0173 20.4987 13.2345 20.9741 11.3328 20.9741C9.5499 20.9741 7.8859 20.4987 6.45962 19.6667L0.992188 21.093L2.53733 15.7444C1.58647 14.1993 1.11104 12.4164 1.11104 10.6335C1.11104 8.85068 1.58647 7.06783 2.53733 5.52268C3.48819 3.97754 4.67676 2.67011 6.34076 1.71925C8.00476 0.768397 9.66876 0.292969 11.4516 0.292969C12.759 0.292969 14.0665 0.530683 15.3739 1.12497C16.6813 1.71925 17.6322 2.4324 18.7019 3.38325ZM11.3328 19.1913C12.8779 19.1913 14.3042 18.8347 15.6116 18.0027C16.919 17.1707 17.9888 16.2198 18.8208 14.9124C19.6528 13.605 20.0093 12.1787 20.0093 10.6335C20.0093 9.56383 19.7716 8.49411 19.2962 7.4244C18.8208 6.35468 18.2265 5.40383 17.3945 4.57183C16.5625 3.73983 15.6116 3.14554 14.6608 2.67011C13.7099 2.19468 12.5213 2.07583 11.3328 2.07583C9.78762 2.07583 8.36133 2.4324 7.0539 3.2644C5.74647 4.0964 4.79562 5.04725 3.96362 6.35468C3.13162 7.66211 2.77504 9.0884 2.77504 10.6335C2.77504 12.2975 3.25047 13.8427 4.08247 15.1501L4.32019 15.5067L3.48819 18.7158L6.69733 17.8838L7.0539 18.1215C8.36133 18.8347 9.78762 19.1913 11.3328 19.1913ZM16.087 12.773L16.2059 12.8918C16.4436 13.0107 16.5625 13.0107 16.5625 13.1295C16.5625 13.2484 16.5625 13.3673 16.5625 13.605C16.5625 13.8427 16.4436 14.0804 16.3248 14.3181C16.2059 14.5558 15.9682 14.7935 15.6116 15.1501C15.255 15.5067 14.8985 15.5067 14.6608 15.6255C14.1853 15.7444 13.8288 15.7444 13.3533 15.6255C12.8779 15.5067 12.2836 15.269 11.4516 15.0313C10.0253 14.1993 8.59904 13.0107 7.29162 11.109L7.17276 10.9901C6.45962 10.0393 6.10304 9.20725 6.10304 8.37525C6.10304 7.54325 6.45962 6.83011 6.93504 6.23583C7.17276 5.99811 7.41047 5.87925 7.64819 5.87925H8.24247C8.36133 5.87925 8.48019 5.87925 8.59904 5.99811C8.7179 6.11697 8.7179 6.11697 8.83676 6.35468L9.66876 8.2564C9.78761 8.49411 9.78761 8.61297 9.66876 8.73182C9.5499 9.0884 9.31219 9.32611 9.07447 9.56382C8.95562 9.68268 8.83676 9.80154 8.83676 9.80154C8.83676 9.80154 8.83676 9.9204 8.95562 10.0393C9.43104 10.8713 9.90647 11.4655 10.5008 11.941C10.9762 12.2975 11.5705 12.6541 12.4025 13.1295C12.6402 13.2484 12.8779 13.2484 12.9968 13.1295C13.3533 12.6541 13.7099 12.2975 13.8288 12.0598C13.9476 11.941 13.9476 11.8221 14.0665 11.8221C14.1853 11.8221 14.3042 11.8221 14.423 11.8221C14.5419 12.0598 15.1362 12.2975 16.087 12.773Z" />
		</g>
	</symbol>
	<symbol id="svg-yout" viewBox="0 0 22 17">
		<g>
			<path
				d="M11.0708 0.873535H11.1932C12.3235 0.877806 18.0508 0.920515 19.595 1.35045C20.0618 1.48166 20.4872 1.73742 20.8286 2.09216C21.1701 2.4469 21.4156 2.88821 21.5407 3.37198C21.6796 3.91295 21.7772 4.62903 21.8432 5.36789L21.857 5.51594L21.8872 5.88608L21.8982 6.03414C21.9876 7.33532 21.9986 8.55393 22 8.82015V8.92692C21.9986 9.2031 21.9862 10.5043 21.8872 11.8596L21.8762 12.009L21.8639 12.1571C21.7951 12.9714 21.6934 13.78 21.5407 14.3751C21.416 14.8591 21.1706 15.3006 20.8291 15.6554C20.4876 16.0102 20.062 16.2658 19.595 16.3966C17.9999 16.8408 11.9371 16.8721 11.0969 16.8735H10.9017C10.4768 16.8735 8.71942 16.865 6.8768 16.7995L6.64304 16.791L6.52341 16.7853L6.28827 16.7753L6.05313 16.7653C4.52678 16.6956 3.07332 16.5831 2.40365 16.3952C1.93679 16.2645 1.51131 16.0091 1.16982 15.6546C0.828329 15.3 0.582826 14.8588 0.457904 14.3751C0.305269 13.7814 0.203513 12.9714 0.134758 12.1571L0.123758 12.0076L0.112757 11.8596C0.0448933 10.8949 0.00728777 9.92825 0 8.96109L0 8.78598C0.00275017 8.47991 0.0137509 7.42216 0.0880055 6.2548L0.0976311 6.10816L0.101756 6.03414L0.112757 5.88608L0.143009 5.51594L0.15676 5.36789C0.222764 4.62903 0.320395 3.91153 0.459279 3.37198C0.58399 2.88802 0.8294 2.4465 1.1709 2.0917C1.51241 1.73689 1.938 1.48127 2.40503 1.35045C3.07469 1.16538 4.52816 1.05149 6.0545 0.980306L6.28827 0.970341L6.52478 0.961799L6.64304 0.957529L6.87818 0.947563C8.18686 0.903965 9.49608 0.87976 10.8054 0.874959H11.0708V0.873535ZM8.80055 5.44334V12.3023L14.5168 8.87425L8.80055 5.44334Z"/>
		</g>
	</symbol>
	<symbol id="svg-inst" viewBox="0 0 22 22">
		<g>
			<path
				d="M10.997 0.0124859C6.49743 0.0124859 2.25094 -0.381912 0.619842 3.78743C-0.0550969 5.47771 0.00114784 7.78775 0.00114784 10.9993C0.00114784 13.8164 -0.0550969 16.5208 0.619842 18.2111C2.25094 22.3805 6.52555 21.9861 10.997 21.9861C15.2716 21.9861 19.7431 22.4368 21.3742 18.2111C22.0491 16.4082 21.9929 14.2671 21.9929 10.9993C21.9929 6.71724 22.2179 3.95646 20.1368 1.84362C18.0276 -0.269227 15.2154 0.0124859 10.997 0.0124859ZM10.0409 1.92813C19.4056 1.92813 20.643 0.913967 20.0243 15.4222C19.7993 20.5493 15.8622 20.0422 11.1095 20.0422C2.30719 19.9859 2.08221 19.7605 2.08221 10.9993C2.02596 2.09716 2.64466 1.92813 10.0409 1.92813ZM16.8465 3.8156C16.1153 3.8156 15.4966 4.43537 15.4966 5.16783C15.4966 5.90028 16.1153 6.52005 16.8465 6.52005C17.5777 6.52005 18.1964 5.90028 18.1964 5.16783C18.1964 4.43537 17.5777 3.8156 16.8465 3.8156ZM10.997 5.3932C7.90355 5.3932 5.37253 7.92861 5.37253 11.0274C5.37253 14.1263 7.90355 16.6617 10.997 16.6617C14.0905 16.6617 16.6215 14.1263 16.6215 11.0274C16.6215 7.92861 14.0905 5.3932 10.997 5.3932ZM10.997 7.30884C15.8341 7.30884 15.8341 14.6334 10.997 14.6334C6.15996 14.6334 6.15996 7.30884 10.997 7.30884Z" />
		</g>
	</symbol>
	<symbol id="svg-chevron-down" viewBox="0 0 10 6">
		<g>
			<path d="M1 0.75L5 4.75L9 0.75" stroke="white" stroke-linecap="round" stroke-linejoin="round" />
		</g>
	</symbol>
	<symbol id="svg-chevron-right" viewBox="0 0 50 49">
		<g>
			<path d="M18.8203 36.6307L30.951 24.5001L18.8203 12.3694"  stroke-width="2"
				stroke-linecap="round" stroke-linejoin="round" />
		</g>
	</symbol>
	<symbol id="svg-logo" viewBox="0 0 43 44">
		<g>
			<path
				d="M43 0.874878H0C0 0.874878 1.70958e-06 27.9333 0.0280184 28.9614C0.0280184 29.1274 0.0280184 29.3095 0.0280184 29.5023C0.0280184 31.7031 0.0168109 36.1745 6.62875 38.5253L9.67696 39.6445C14.6527 41.4437 15.0169 41.5669 20.9229 43.6982L21.4944 43.8749L22.0659 43.6982C27.9775 41.5669 28.3417 41.4437 33.3118 39.6445L36.36 38.5253C42.972 36.1799 42.9664 31.7031 42.9608 29.5023C42.9608 29.3041 42.9608 29.1221 42.9608 28.9614C42.9944 27.9333 42.9888 0.874878 42.9888 0.874878H43ZM41.5487 28.9239C41.5431 29.1007 41.5431 29.2988 41.5431 29.5076C41.5431 31.6442 41.5319 35.2481 35.8501 37.2669L32.7963 38.3861C27.9214 40.1746 27.4676 40.3513 21.5897 42.4237L21.5 42.4505H21.4832L21.3935 42.4237C15.5156 40.3513 15.0618 40.1746 10.1869 38.3861L7.13305 37.2669C1.45127 35.2481 1.44006 31.6389 1.44006 29.5076C1.44006 29.2988 1.44006 29.1007 1.44006 28.9239C1.46247 27.5477 1.45687 6.40115 1.46247 2.22432H41.5207C41.5207 6.40115 41.5207 27.5424 41.5431 28.9239H41.5487Z"
				 />
			<path
				d="M20.1723 12.3236C20.1723 11.1831 20.4637 5.3087 13.7341 5.3087H4.28125V12.9984L6.65146 15.0654V7.63274H13.7901C18.0711 7.63274 17.7909 11.4883 17.7909 12.2969V35.6711C17.7909 35.6711 10.8596 33.2293 8.75832 32.335C8.11954 32.019 6.65707 31.4996 6.65707 28.4794V22.7765L6.62905 22.755L4.28685 20.7148V28.5544C4.28685 33.2185 7.17257 34.2306 8.33807 34.6483C10.4673 35.4248 20.1723 38.9537 20.1723 38.9537V12.3236Z"
				 />
			<path
				d="M22.8339 12.3236C22.8339 11.1831 22.5425 5.3087 29.2721 5.3087H38.7249V12.9984L36.3547 15.0654V7.63274H29.2161C24.9351 7.63274 25.2153 11.4883 25.2153 12.2969V35.6711C25.2153 35.6711 32.1466 33.2293 34.2479 32.335C34.8867 32.019 36.3491 31.4996 36.3491 28.4794V22.7765L36.3771 22.755L38.7193 20.7148V28.5544C38.7193 33.2185 35.8336 34.2306 34.6681 34.6483C32.5333 35.4248 22.8339 38.9537 22.8339 38.9537V12.3236Z"
				 />
			<path
				d="M11.4755 24.0405H12.9323V18.3964H14.6189V17.1916H14.5069H14.406H12.2207H9.91773H9.80566V18.3964H11.4755V24.0405Z"
				 />
			<path
				d="M32.8861 18.3909V17.2021H32.8132C32.0904 17.2021 31.4572 17.2824 30.9081 17.4377C30.8184 17.4645 30.7344 17.4966 30.6615 17.5234C30.2133 17.6787 29.8154 17.9036 29.4904 18.1767C29.0926 18.5194 28.8068 18.9264 28.6331 19.3869C28.5099 19.7564 28.437 20.1741 28.437 20.6132C28.437 21.0523 28.5099 21.4325 28.6331 21.7912C28.734 22.0376 28.8573 22.2678 29.0198 22.482C29.0926 22.5891 29.1823 22.6855 29.2663 22.7766C29.3504 22.8729 29.4512 22.9533 29.5521 23.0497H29.5633C29.8715 23.312 30.2357 23.5262 30.6559 23.6815C30.7568 23.719 30.8577 23.7511 30.9641 23.7886C31.502 23.9439 32.124 24.0242 32.8076 24.0242H32.8805V22.8247H32.83C32.83 22.8247 32.8076 22.8247 32.802 22.8247C32.5331 22.8247 32.2473 22.8087 31.9559 22.7444C31.9391 22.7444 31.9279 22.7391 31.9167 22.7337C30.9081 22.5088 29.9779 21.8716 29.9779 20.6614C29.9779 20.6453 29.9779 20.581 29.9779 20.565C30.0059 18.3695 32.6787 18.4176 32.8805 18.3909H32.8861Z"
				 />
		</g>
	</symbol>
	<symbol id="svg-search" viewBox="0 0 28 28">
		<g>
			<path
				d="M11.601 21.9333C16.498 21.9333 20.4677 17.7547 20.4677 12.6C20.4677 7.44534 16.498 3.26666 11.601 3.26666C6.70412 3.26666 2.73438 7.44534 2.73438 12.6C2.73438 17.7547 6.70412 21.9333 11.601 21.9333Z"
				 stroke-width="2" stroke-linecap="round" stroke-linejoin="round" />
			<path d="M25.0281 26.0273L18.4258 19.425"  stroke-width="2"
				stroke-linecap="round" stroke-linejoin="round" />
		</g>
	</symbol>
	<symbol id="svg-user" viewBox="0 0 24 24">
		<g>
			<path
				d="M12.0006 12.6471C7.02999 12.6471 1.71484 17.2822 1.71484 23H22.2863C22.2863 17.2822 16.9711 12.6471 12.0006 12.6471Z"
				 stroke-width="2" stroke-linecap="round" stroke-linejoin="round" />
			<path
				d="M12.0003 11.3529C14.8406 11.3529 17.1431 9.03536 17.1431 6.17647C17.1431 3.31758 14.8406 1 12.0003 1C9.15996 1 6.85742 3.31758 6.85742 6.17647C6.85742 9.03536 9.15996 11.3529 12.0003 11.3529Z"
				 stroke-width="2" stroke-linecap="round" stroke-linejoin="round" />
		</g>
	</symbol>
	<symbol id="svg-map-pin" viewBox="0 0 25 25">
		<g>
			<path
				d="M21.875 10.4167C21.875 17.7083 12.5 23.9583 12.5 23.9583C12.5 23.9583 3.125 17.7083 3.125 10.4167C3.125 7.93026 4.11272 5.54569 5.87087 3.78754C7.62903 2.02939 10.0136 1.04167 12.5 1.04167C14.9864 1.04167 17.371 2.02939 19.1291 3.78754C20.8873 5.54569 21.875 7.93026 21.875 10.4167Z"
				 stroke-width="2" stroke-linecap="round" stroke-linejoin="round" />
			<path
				d="M12.5 13.5417C14.2259 13.5417 15.625 12.1426 15.625 10.4167C15.625 8.69078 14.2259 7.29167 12.5 7.29167C10.7741 7.29167 9.375 8.69078 9.375 10.4167C9.375 12.1426 10.7741 13.5417 12.5 13.5417Z"
				 stroke-width="2" stroke-linecap="round" stroke-linejoin="round" />
		</g>
	</symbol>
	<symbol id="svg-eye" viewBox="0 0 20 17">
		<g>
			<path
				d="M0.833496 8.50016C0.833496 8.50016 4.16683 1.8335 10.0002 1.8335C15.8335 1.8335 19.1668 8.50016 19.1668 8.50016C19.1668 8.50016 15.8335 15.1668 10.0002 15.1668C4.16683 15.1668 0.833496 8.50016 0.833496 8.50016Z"
				 stroke-width="2" stroke-linecap="round" stroke-linejoin="round" />
			<path
				d="M10 11C11.3807 11 12.5 9.88071 12.5 8.5C12.5 7.11929 11.3807 6 10 6C8.61929 6 7.5 7.11929 7.5 8.5C7.5 9.88071 8.61929 11 10 11Z"
				 stroke-width="2" stroke-linecap="round" stroke-linejoin="round" />
		</g>
	</symbol>
	<symbol >
		<g></g>
	</symbol>
</svg>