<svg width="35" height="35" viewBox="0 0 35 35" fill="none" xmlns="http://www.w3.org/2000/svg">
<g clip-path="url(#clip0_399_116)">
<path d="M3.26418 28.2343C3.50207 28.0808 3.81953 28.1492 3.97307 28.3871C4.68674 29.4931 6.03116 29.9273 7.22281 29.5308C6.90179 29.3024 6.60108 29.0444 6.32538 28.7587C6.12878 28.555 6.13452 28.2303 6.33823 28.0337C6.54201 27.837 6.86665 27.8428 7.06326 28.0466C7.40539 28.4011 7.79265 28.705 8.21415 28.9518C8.39565 28.7877 8.55779 28.599 8.69458 28.3871C8.78106 28.2534 8.9311 28.1617 9.10002 28.1535C9.28432 28.1442 9.45925 28.2365 9.55632 28.3871C10.6643 30.1045 13.1711 30.1023 14.2778 28.3871C14.369 28.2456 14.531 28.1525 14.71 28.1527C14.8885 28.1534 15.0487 28.2462 15.1395 28.3871C16.2257 30.0706 18.7101 30.1388 19.8637 28.3834C19.9562 28.2427 20.1161 28.1525 20.2932 28.1528C20.4714 28.1535 20.6319 28.2466 20.7226 28.3872C21.8088 30.0707 24.2932 30.1389 25.4468 28.3834C25.5413 28.2395 25.7027 28.1525 25.8764 28.1528C26.054 28.1535 26.2143 28.2458 26.3059 28.3872C26.4424 28.5988 26.6045 28.7874 26.7858 28.9515C28.0774 28.1951 29.0081 26.9073 29.3168 25.4592C27.7187 25.4592 6.76965 25.4592 5.68376 25.4592C5.73332 25.6921 5.79915 25.9232 5.88043 26.149C5.97627 26.4154 5.83805 26.7092 5.57158 26.8051C5.30512 26.9008 5.01138 26.7628 4.91554 26.4963C4.78306 26.1283 4.68483 25.7479 4.62351 25.3658C4.54503 24.8766 4.92477 24.4338 5.41921 24.4338H7.26252L16.9875 2.09405V0.512764C16.9875 0.229551 17.217 0 17.5002 0C17.7834 0 18.013 0.229482 18.013 0.512764V1.83107C24.7568 4.19364 28.4829 12.5809 28.7054 20.3807C28.7177 20.8161 28.5154 21.2192 28.1575 21.4737V24.4335H29.5812C29.8176 24.4335 30.0412 24.5368 30.1947 24.7168C30.3478 24.8965 30.4142 25.133 30.3769 25.3656C30.1052 27.059 29.1699 28.5462 27.7784 29.5311C28.9698 29.927 30.3137 29.4926 31.027 28.3871C31.1806 28.1492 31.498 28.0807 31.7359 28.2343C31.9738 28.3877 32.0423 28.7052 31.8888 28.9431C30.529 31.0506 27.5667 31.2968 25.8748 29.4936C24.3658 31.1019 21.8021 31.1034 20.2916 29.4936C18.7826 31.1019 16.2188 31.1034 14.7084 29.4936C13.1994 31.1019 10.6356 31.1033 9.12525 29.4936C7.42993 31.3005 4.46833 31.0464 3.11126 28.943C2.95779 28.7051 3.02622 28.3877 3.26418 28.2343ZM16.9873 4.66293L8.38067 24.4335H16.9873C16.9873 23.1407 16.9873 5.25027 16.9873 4.66293ZM18.0128 24.4335H27.1321V21.7133H18.0128V24.4335ZM18.0127 2.92448V6.03914H22.4203C21.0993 4.61399 19.5996 3.54908 18.0127 2.92448ZM23.2914 7.0646H18.0128V9.65884H24.9677C24.4412 8.67371 23.873 7.81081 23.2914 7.0646ZM26.7915 14.3041H23.4405C23.1574 14.3041 22.9278 14.0746 22.9278 13.7913C22.9278 13.5081 23.1573 13.2785 23.4405 13.2785H26.4939C26.2061 12.3811 25.8678 11.5145 25.4808 10.6843H18.0127V13.2785H21.0477C21.3308 13.2785 21.5604 13.508 21.5604 13.7913C21.5604 14.0745 21.3309 14.3041 21.0477 14.3041H18.0127V16.8983H27.3501C27.2075 16.0163 27.0204 15.1471 26.7915 14.3041ZM27.4966 17.9238H18.0128V20.6878H27.4058V20.6877C27.5595 20.6877 27.6847 20.5616 27.6803 20.41C27.6563 19.5688 27.5944 18.7391 27.4966 17.9238Z" fill="#BC863D"/>
<path d="M8.84643 32.534C9.08439 32.3805 9.40178 32.449 9.55525 32.6868C10.6411 34.3697 13.1255 34.4389 14.2794 32.683C14.374 32.5391 14.5352 32.4523 14.7085 32.4524C14.883 32.4528 15.0449 32.5421 15.1384 32.6868C16.2253 34.3714 18.7096 34.4375 19.8626 32.683C19.9552 32.542 20.115 32.4523 20.2914 32.4524C20.4698 32.4528 20.6306 32.5461 20.7216 32.6868C21.8295 34.4041 24.3365 34.4019 25.4431 32.6868C25.5966 32.4488 25.9141 32.3805 26.1519 32.534C26.3898 32.6875 26.4583 33.0049 26.3048 33.2428C24.9453 35.3498 21.9832 35.5969 20.2908 33.7933C18.7819 35.4015 16.2181 35.4031 14.7076 33.7933C13.019 35.593 10.0567 35.3553 8.69365 33.2428C8.54004 33.0049 8.60854 32.6875 8.84643 32.534Z" fill="#BC863D"/>
</g>
<defs>
<clipPath id="clip0_399_116">
<rect width="35" height="35" fill="white" transform="matrix(-1 0 0 1 35 0)"/>
</clipPath>
</defs>
</svg>
