<svg width="22" height="22" viewBox="0 0 22 22" fill="none" xmlns="http://www.w3.org/2000/svg">
<path d="M10.997 0.0124859C6.49743 0.0124859 2.25094 -0.381912 0.619842 3.78743C-0.0550969 5.47771 0.00114784 7.78775 0.00114784 10.9993C0.00114784 13.8164 -0.0550969 16.5208 0.619842 18.2111C2.25094 22.3805 6.52555 21.9861 10.997 21.9861C15.2716 21.9861 19.7431 22.4368 21.3742 18.2111C22.0491 16.4082 21.9929 14.2671 21.9929 10.9993C21.9929 6.71724 22.2179 3.95646 20.1368 1.84362C18.0276 -0.269227 15.2154 0.0124859 10.997 0.0124859ZM10.0409 1.92813C19.4056 1.92813 20.643 0.913967 20.0243 15.4222C19.7993 20.5493 15.8622 20.0422 11.1095 20.0422C2.30719 19.9859 2.08221 19.7605 2.08221 10.9993C2.02596 2.09716 2.64466 1.92813 10.0409 1.92813ZM16.8465 3.8156C16.1153 3.8156 15.4966 4.43537 15.4966 5.16783C15.4966 5.90028 16.1153 6.52005 16.8465 6.52005C17.5777 6.52005 18.1964 5.90028 18.1964 5.16783C18.1964 4.43537 17.5777 3.8156 16.8465 3.8156ZM10.997 5.3932C7.90355 5.3932 5.37253 7.92861 5.37253 11.0274C5.37253 14.1263 7.90355 16.6617 10.997 16.6617C14.0905 16.6617 16.6215 14.1263 16.6215 11.0274C16.6215 7.92861 14.0905 5.3932 10.997 5.3932ZM10.997 7.30884C15.8341 7.30884 15.8341 14.6334 10.997 14.6334C6.15996 14.6334 6.15996 7.30884 10.997 7.30884Z" fill="white"/>
</svg>
