<svg width="22" height="22" viewBox="0 0 22 22" fill="none" xmlns="http://www.w3.org/2000/svg">
<path d="M18.7019 3.38325C19.6528 4.33411 20.4848 5.52268 20.9602 6.71125C21.4356 7.89983 21.7922 9.32611 21.7922 10.6335C21.7922 12.5353 21.3168 14.1993 20.3659 15.7444C19.415 17.2895 18.1076 18.597 16.5625 19.5478C15.0173 20.4987 13.2345 20.9741 11.3328 20.9741C9.5499 20.9741 7.8859 20.4987 6.45962 19.6667L0.992188 21.093L2.53733 15.7444C1.58647 14.1993 1.11104 12.4164 1.11104 10.6335C1.11104 8.85068 1.58647 7.06783 2.53733 5.52268C3.48819 3.97754 4.67676 2.67011 6.34076 1.71925C8.00476 0.768397 9.66876 0.292969 11.4516 0.292969C12.759 0.292969 14.0665 0.530683 15.3739 1.12497C16.6813 1.71925 17.6322 2.4324 18.7019 3.38325ZM11.3328 19.1913C12.8779 19.1913 14.3042 18.8347 15.6116 18.0027C16.919 17.1707 17.9888 16.2198 18.8208 14.9124C19.6528 13.605 20.0093 12.1787 20.0093 10.6335C20.0093 9.56383 19.7716 8.49411 19.2962 7.4244C18.8208 6.35468 18.2265 5.40383 17.3945 4.57183C16.5625 3.73983 15.6116 3.14554 14.6608 2.67011C13.7099 2.19468 12.5213 2.07583 11.3328 2.07583C9.78762 2.07583 8.36133 2.4324 7.0539 3.2644C5.74647 4.0964 4.79562 5.04725 3.96362 6.35468C3.13162 7.66211 2.77504 9.0884 2.77504 10.6335C2.77504 12.2975 3.25047 13.8427 4.08247 15.1501L4.32019 15.5067L3.48819 18.7158L6.69733 17.8838L7.0539 18.1215C8.36133 18.8347 9.78762 19.1913 11.3328 19.1913ZM16.087 12.773L16.2059 12.8918C16.4436 13.0107 16.5625 13.0107 16.5625 13.1295C16.5625 13.2484 16.5625 13.3673 16.5625 13.605C16.5625 13.8427 16.4436 14.0804 16.3248 14.3181C16.2059 14.5558 15.9682 14.7935 15.6116 15.1501C15.255 15.5067 14.8985 15.5067 14.6608 15.6255C14.1853 15.7444 13.8288 15.7444 13.3533 15.6255C12.8779 15.5067 12.2836 15.269 11.4516 15.0313C10.0253 14.1993 8.59904 13.0107 7.29162 11.109L7.17276 10.9901C6.45962 10.0393 6.10304 9.20725 6.10304 8.37525C6.10304 7.54325 6.45962 6.83011 6.93504 6.23583C7.17276 5.99811 7.41047 5.87925 7.64819 5.87925H8.24247C8.36133 5.87925 8.48019 5.87925 8.59904 5.99811C8.7179 6.11697 8.7179 6.11697 8.83676 6.35468L9.66876 8.2564C9.78761 8.49411 9.78761 8.61297 9.66876 8.73182C9.5499 9.0884 9.31219 9.32611 9.07447 9.56382C8.95562 9.68268 8.83676 9.80154 8.83676 9.80154C8.83676 9.80154 8.83676 9.9204 8.95562 10.0393C9.43104 10.8713 9.90647 11.4655 10.5008 11.941C10.9762 12.2975 11.5705 12.6541 12.4025 13.1295C12.6402 13.2484 12.8779 13.2484 12.9968 13.1295C13.3533 12.6541 13.7099 12.2975 13.8288 12.0598C13.9476 11.941 13.9476 11.8221 14.0665 11.8221C14.1853 11.8221 14.3042 11.8221 14.423 11.8221C14.5419 12.0598 15.1362 12.2975 16.087 12.773Z" fill="white"/>
</svg>
