<svg width="22" height="17" viewBox="0 0 22 17" fill="none" xmlns="http://www.w3.org/2000/svg">
<path d="M11.0708 0.873535H11.1932C12.3235 0.877806 18.0508 0.920515 19.595 1.35045C20.0618 1.48166 20.4872 1.73742 20.8286 2.09216C21.1701 2.4469 21.4156 2.88821 21.5407 3.37198C21.6796 3.91295 21.7772 4.62903 21.8432 5.36789L21.857 5.51594L21.8872 5.88608L21.8982 6.03414C21.9876 7.33532 21.9986 8.55393 22 8.82015V8.92692C21.9986 9.2031 21.9862 10.5043 21.8872 11.8596L21.8762 12.009L21.8639 12.1571C21.7951 12.9714 21.6934 13.78 21.5407 14.3751C21.416 14.8591 21.1706 15.3006 20.8291 15.6554C20.4876 16.0102 20.062 16.2658 19.595 16.3966C17.9999 16.8408 11.9371 16.8721 11.0969 16.8735H10.9017C10.4768 16.8735 8.71942 16.865 6.8768 16.7995L6.64304 16.791L6.52341 16.7853L6.28827 16.7753L6.05313 16.7653C4.52678 16.6956 3.07332 16.5831 2.40365 16.3952C1.93679 16.2645 1.51131 16.0091 1.16982 15.6546C0.828329 15.3 0.582826 14.8588 0.457904 14.3751C0.305269 13.7814 0.203513 12.9714 0.134758 12.1571L0.123758 12.0076L0.112757 11.8596C0.0448933 10.8949 0.00728777 9.92826 0 8.96109L0 8.78598C0.00275017 8.47991 0.0137509 7.42216 0.0880055 6.2548L0.0976311 6.10816L0.101756 6.03414L0.112757 5.88608L0.143009 5.51594L0.15676 5.36789C0.222764 4.62903 0.320395 3.91153 0.459279 3.37198C0.58399 2.88802 0.8294 2.4465 1.1709 2.0917C1.51241 1.73689 1.938 1.48127 2.40503 1.35045C3.07469 1.16538 4.52816 1.05149 6.0545 0.980306L6.28827 0.970341L6.52478 0.961799L6.64304 0.957529L6.87818 0.947563C8.18686 0.903965 9.49608 0.87976 10.8054 0.874959H11.0708V0.873535ZM8.80055 5.44334V12.3023L14.5168 8.87425L8.80055 5.44334Z" fill="white" fill-opacity="0.5"/>
</svg>
